<svg width="180" height="180" viewBox="0 0 180 180" fill="none" xmlns="http://www.w3.org/2000/svg">
  <rect width="180" height="180" rx="40" fill="#dc2626"/>
  <g filter="url(#filter0_d_0_1)">
    <path d="M90 34C68.352 34 50.4 51.952 50.4 73.6C50.4 95.248 68.352 113.2 90 113.2C111.648 113.2 129.6 95.248 129.6 73.6C129.6 51.952 111.648 34 90 34ZM90 51.6C102.768 51.6 112.8 61.632 112.8 73.6C112.8 85.568 102.768 95.6 90 95.6C77.232 95.6 67.2 85.568 67.2 73.6C67.2 61.632 77.232 51.6 90 51.6Z" fill="white"/>
    <path d="M90 113.2C90 113.2 61.2 124.4 61.2 146.8C61.2 146.8 61.2 158 90 158C118.8 158 118.8 146.8 118.8 146.8C118.8 124.4 90 113.2 90 113.2Z" fill="white"/>
    <circle cx="90" cy="73.6" r="11.2" fill="#dc2626"/>
  </g>
  <defs>
    <filter id="filter0_d_0_1" x="57.2" y="34" width="81.6" height="128" filterUnits="userSpaceOnUse" color-interpolation-filters="sRGB">
      <feFlood flood-opacity="0" result="BackgroundImageFix"/>
      <feColorMatrix in="SourceAlpha" type="matrix" values="0 0 0 0 0 0 0 0 0 0 0 0 0 0 0 0 0 0 127 0" result="hardAlpha"/>
      <feOffset dy="4"/>
      <feGaussianBlur stdDeviation="2"/>
      <feComposite in2="hardAlpha" operator="out"/>
      <feColorMatrix type="matrix" values="0 0 0 0 0 0 0 0 0 0 0 0 0 0 0 0 0 0 0.25 0"/>
      <feBlend mode="normal" in2="BackgroundImageFix" result="effect1_dropShadow_0_1"/>
      <feBlend mode="normal" in="SourceGraphic" in2="effect1_dropShadow_0_1" result="shape"/>
    </filter>
  </defs>
</svg>
